<?xml version="1.0" encoding="UTF-8"?>
<!DOCTYPE svg PUBLIC "-//W3C//DTD SVG 1.1//EN" "http://www.w3.org/Graphics/SVG/1.1/DTD/svg11.dtd">
<svg xmlns="http://www.w3.org/2000/svg" version="1.1" width="38px" height="38px" style="shape-rendering:geometricPrecision; text-rendering:geometricPrecision; image-rendering:optimizeQuality; fill-rule:evenodd; clip-rule:evenodd" xmlns:xlink="http://www.w3.org/1999/xlink">
<g><path style="opacity:0.964" fill="#f48021" d="M 9.5,3.5 C 12.6248,2.52056 15.9581,2.18723 19.5,2.5C 21.2018,4.8002 21.8685,7.46687 21.5,10.5C 19.6122,12.9878 18.9455,15.9878 19.5,19.5C 21.2018,21.8002 21.8685,24.4669 21.5,27.5C 19.5853,27.2155 17.9187,27.5489 16.5,28.5C 14.2646,28.7947 12.2646,28.4614 10.5,27.5C 12.7505,27.8186 14.7505,27.3186 16.5,26C 16.5,23.3333 16.5,20.6667 16.5,18C 14.9387,17.8119 14.272,18.6453 14.5,20.5C 13.5,20.5 12.5,20.5 11.5,20.5C 11.5,20.1667 11.5,19.8333 11.5,19.5C 13.0481,19.1788 13.7148,18.1788 13.5,16.5C 17.9331,15.8685 18.5997,13.8685 15.5,10.5C 15.7545,8.44659 16.0878,6.27992 16.5,4C 14.1902,3.50335 11.8568,3.33669 9.5,3.5 Z"/></g>
<g><path style="opacity:0.992" fill="#f48622" d="M 19.5,2.5 C 21.1667,2.5 22.8333,2.5 24.5,2.5C 26.6567,5.68751 26.99,9.02084 25.5,12.5C 24.3951,11.3995 23.0618,10.7329 21.5,10.5C 21.8685,7.46687 21.2018,4.8002 19.5,2.5 Z"/></g>
<g><path style="opacity:0.999" fill="#f57921" d="M 9.5,4.5 C 9.5,4.16667 9.5,3.83333 9.5,3.5C 11.8568,3.33669 14.1902,3.50335 16.5,4C 16.0878,6.27992 15.7545,8.44659 15.5,10.5C 14.1667,10.5 12.8333,10.5 11.5,10.5C 10.2633,8.7966 10.2633,6.96326 11.5,5C 10.9056,4.53566 10.2389,4.36899 9.5,4.5 Z"/></g>
<g><path style="opacity:0.988" fill="#f38c22" d="M 24.5,2.5 C 26.8333,2.5 29.1667,2.5 31.5,2.5C 30.2086,3.47283 30.2086,4.47283 31.5,5.5C 31.0233,6.47758 30.3567,7.31091 29.5,8C 30.756,8.41691 31.4226,9.25025 31.5,10.5C 30.1667,10.5 28.8333,10.5 27.5,10.5C 27.5,13.5 27.5,16.5 27.5,19.5C 28.7175,20.1614 30.0508,20.8281 31.5,21.5C 31.0233,22.4776 30.3567,23.3109 29.5,24C 31.1066,25.049 31.7733,26.549 31.5,28.5C 28.8333,28.5 26.1667,28.5 23.5,28.5C 24.209,27.596 25.209,27.2627 26.5,27.5C 26.81,24.2869 26.4767,21.2869 25.5,18.5C 25.5,16.5 25.5,14.5 25.5,12.5C 26.99,9.02084 26.6567,5.68751 24.5,2.5 Z"/></g>
<g><path style="opacity:0.916" fill="#f39022" d="M 31.5,2.5 C 32.4959,2.41423 33.3292,2.74756 34,3.5C 34.8316,11.5208 34.6649,19.5208 33.5,27.5C 32.8165,27.8627 32.1499,28.1961 31.5,28.5C 31.7733,26.549 31.1066,25.049 29.5,24C 30.3567,23.3109 31.0233,22.4776 31.5,21.5C 30.0508,20.8281 28.7175,20.1614 27.5,19.5C 29.0568,18.5337 30.3901,17.2004 31.5,15.5C 30.8333,14.8333 30.1667,14.1667 29.5,13.5C 30.6119,12.7348 31.2786,11.7348 31.5,10.5C 31.4226,9.25025 30.756,8.41691 29.5,8C 30.3567,7.31091 31.0233,6.47758 31.5,5.5C 30.2086,4.47283 30.2086,3.47283 31.5,2.5 Z"/></g>
<g><path style="opacity:1" fill="#f57720" d="M 9.5,4.5 C 10.2389,4.36899 10.9056,4.53566 11.5,5C 10.2633,6.96326 10.2633,8.7966 11.5,10.5C 11.5,13.5 11.5,16.5 11.5,19.5C 11.5,19.8333 11.5,20.1667 11.5,20.5C 11.2642,22.0491 11.2642,23.5491 11.5,25C 10.9558,25.7172 10.2891,26.2172 9.5,26.5C 8.16667,19.1667 8.16667,11.8333 9.5,4.5 Z"/></g>
<g><path style="opacity:1" fill="#f66f20" d="M 2.5,9.5 C 3.5,9.5 4.5,9.5 5.5,9.5C 5.17503,17.0191 5.50837,24.3524 6.5,31.5C 6.17876,33.0481 5.17876,33.7148 3.5,33.5C 2.50761,25.6841 2.17428,17.6841 2.5,9.5 Z"/></g>
<g><path style="opacity:0.447" fill="#f57f21" d="M 2.5,9.5 C 3.56764,8.56552 4.90097,8.23219 6.5,8.5C 6.5,15.8333 6.5,23.1667 6.5,30.5C 8.16667,30.5 9.83333,30.5 11.5,30.5C 11.5,30.8333 11.5,31.1667 11.5,31.5C 9.83333,31.5 8.16667,31.5 6.5,31.5C 5.50837,24.3524 5.17503,17.0191 5.5,9.5C 4.5,9.5 3.5,9.5 2.5,9.5 Z"/></g>
<g><path style="opacity:0.829" fill="#f48121" d="M 13.5,12.5 C 15.337,12.6395 15.6704,13.3061 14.5,14.5C 13.7025,14.0431 13.3691,13.3764 13.5,12.5 Z"/></g>
<g><path style="opacity:0.872" fill="#f48821" d="M 21.5,12.5 C 22.6935,12.9704 23.3601,13.9704 23.5,15.5C 23.1667,16.5 22.8333,17.5 22.5,18.5C 21.5344,16.604 21.2011,14.604 21.5,12.5 Z"/></g>
<g><path style="opacity:1" fill="#f57921" d="M 10.5,27.5 C 9.83333,27.5 9.5,27.1667 9.5,26.5C 10.2891,26.2172 10.9558,25.7172 11.5,25C 11.2642,23.5491 11.2642,22.0491 11.5,20.5C 12.5,20.5 13.5,20.5 14.5,20.5C 14.272,18.6453 14.9387,17.8119 16.5,18C 16.5,20.6667 16.5,23.3333 16.5,26C 14.7505,27.3186 12.7505,27.8186 10.5,27.5 Z"/></g>
<g><path style="opacity:0.989" fill="#f48622" d="M 25.5,18.5 C 26.4767,21.2869 26.81,24.2869 26.5,27.5C 25.209,27.2627 24.209,27.596 23.5,28.5C 21.1667,28.5 18.8333,28.5 16.5,28.5C 17.9187,27.5489 19.5853,27.2155 21.5,27.5C 21.8685,24.4669 21.2018,21.8002 19.5,19.5C 21.6208,19.6747 23.6208,19.3414 25.5,18.5 Z"/></g>
<g><path style="opacity:0.557" fill="#f48a21" d="M 11.5,31.5 C 11.5,31.1667 11.5,30.8333 11.5,30.5C 17.1667,30.5 22.8333,30.5 28.5,30.5C 28.5,31.8333 28.5,33.1667 28.5,34.5C 27.1667,34.5 25.8333,34.5 24.5,34.5C 25.0906,33.8485 25.7573,33.1818 26.5,32.5C 24.9547,31.5481 23.288,31.2148 21.5,31.5C 19.8333,31.5 18.1667,31.5 16.5,31.5C 14.8333,31.5 13.1667,31.5 11.5,31.5 Z"/></g>
<g><path style="opacity:1" fill="#f67620" d="M 6.5,31.5 C 8.16667,31.5 9.83333,31.5 11.5,31.5C 13.1667,31.5 14.8333,31.5 16.5,31.5C 14.7512,32.9851 12.7512,33.9851 10.5,34.5C 7.9407,34.8016 5.60737,34.4682 3.5,33.5C 5.17876,33.7148 6.17876,33.0481 6.5,31.5 Z"/></g>
<g><path style="opacity:0.974" fill="#f57f21" d="M 16.5,31.5 C 18.1667,31.5 19.8333,31.5 21.5,31.5C 20.9002,32.8999 19.9002,33.8999 18.5,34.5C 15.8333,34.5 13.1667,34.5 10.5,34.5C 12.7512,33.9851 14.7512,32.9851 16.5,31.5 Z"/></g>
<g><path style="opacity:0.976" fill="#f48622" d="M 21.5,31.5 C 23.288,31.2148 24.9547,31.5481 26.5,32.5C 25.7573,33.1818 25.0906,33.8485 24.5,34.5C 22.5,34.5 20.5,34.5 18.5,34.5C 19.9002,33.8999 20.9002,32.8999 21.5,31.5 Z"/></g>
</svg>
